<svg width="30" height="32" viewBox="0 0 30 32" fill="none" xmlns="http://www.w3.org/2000/svg">
<path d="M9.37502 1.35835C9.37474 1.06016 9.25609 0.774275 9.04514 0.56352C8.8342 0.352764 8.54821 0.234378 8.25002 0.234375H8.24892C6.76873 0.237812 5.31531 0.629213 4.03357 1.36955C2.75183 2.10989 1.68655 3.1733 0.94397 4.45374C0.870008 4.5817 0.821983 4.72298 0.802639 4.8695C0.783295 5.01602 0.793011 5.16492 0.83123 5.30769C0.869448 5.45046 0.935423 5.5843 1.02538 5.70156C1.11534 5.81882 1.22753 5.91721 1.35552 5.99111C1.48352 6.065 1.62482 6.11295 1.77135 6.13222C1.91789 6.15149 2.06679 6.14169 2.20953 6.1034C2.35228 6.0651 2.48608 5.99906 2.6033 5.90904C2.72051 5.81901 2.81884 5.70678 2.89267 5.57874C3.43743 4.63958 4.21887 3.85965 5.15908 3.3167C6.09929 2.77375 7.1654 2.48677 8.25112 2.48437C8.54947 2.48408 8.83549 2.36529 9.04626 2.15412C9.25703 1.94295 9.37529 1.6567 9.37502 1.35835ZM0.797577 21.0138C1.43167 23.3774 2.75225 25.5 4.59242 27.1133C6.43258 28.7266 8.70971 29.7582 11.136 30.0776C13.5623 30.397 16.0288 29.99 18.2238 28.9079C20.4188 27.8258 22.2438 26.1173 23.468 23.9984L29.3743 13.7684C29.7066 13.1932 29.8879 12.5432 29.9014 11.8791C29.9149 11.2149 29.76 10.5581 29.4513 9.96986C29.1425 9.38164 28.6899 8.88114 28.1356 8.51497C27.5813 8.14879 26.9434 7.92886 26.2812 7.87567L26.7528 7.05881C27.2214 6.24629 27.3847 5.29318 27.2132 4.37101C27.0417 3.44883 26.5466 2.61816 25.8172 2.02849C25.0877 1.43882 24.1717 1.12888 23.2341 1.15444C22.2964 1.18 21.3987 1.53939 20.7025 2.16793C20.346 1.58613 19.8443 1.10698 19.2468 0.777506C18.6493 0.448026 17.9764 0.279528 17.2941 0.28854C16.6118 0.297552 15.9436 0.483764 15.355 0.82891C14.7663 1.17406 14.2776 1.66628 13.9365 2.2573L11.4976 6.48167C11.1198 5.93534 10.61 5.49341 10.0155 5.19699C9.42105 4.90057 8.76129 4.75928 8.09757 4.78625C7.43386 4.81323 6.78775 5.0076 6.21931 5.35129C5.65087 5.69497 5.17856 6.17682 4.84631 6.75202L2.03395 11.6234C1.21717 13.0291 0.687321 14.5828 0.475096 16.1947C0.262871 17.8066 0.37248 19.4446 0.797577 21.0138ZM3.98238 12.7484L6.79488 7.87702C6.90551 7.68477 7.05295 7.51622 7.22878 7.381C7.4046 7.24578 7.60536 7.14656 7.81956 7.08899C8.03377 7.03143 8.25722 7.01666 8.47714 7.04553C8.69706 7.0744 8.90913 7.14633 9.10122 7.25723C9.29332 7.36813 9.46166 7.51581 9.59664 7.69182C9.73161 7.86784 9.83055 8.06873 9.88782 8.28302C9.94508 8.4973 9.95954 8.72078 9.93037 8.94066C9.90119 9.16054 9.82895 9.37251 9.71779 9.56444L8.31154 12.0002C8.29278 12.0327 8.27566 12.0661 8.26025 12.1003C8.24899 12.1252 8.23979 12.1506 8.23045 12.1759C8.22708 12.185 8.22296 12.1938 8.21987 12.203C8.20937 12.2341 8.20078 12.2654 8.19309 12.2969C8.1922 12.3008 8.19083 12.3046 8.18987 12.3085C8.18238 12.3409 8.17675 12.3734 8.17215 12.4061C8.17167 12.4096 8.17077 12.4131 8.17029 12.4166C8.16624 12.4477 8.16405 12.4789 8.1626 12.5101C8.1624 12.5156 8.16157 12.521 8.16137 12.5265C8.16047 12.5552 8.16144 12.5838 8.16274 12.6124C8.16308 12.6206 8.16274 12.6287 8.16329 12.6369C8.16508 12.6638 8.16872 12.6904 8.17242 12.717C8.1738 12.7268 8.17428 12.7367 8.17592 12.7465C8.18121 12.7784 8.18835 12.81 8.19631 12.8413C8.19741 12.8455 8.19796 12.8497 8.19906 12.8539C8.20023 12.8582 8.20194 12.8622 8.20311 12.8665C8.21183 12.8975 8.22145 12.9283 8.23277 12.9586C8.23593 12.9669 8.23998 12.9748 8.24328 12.9831C8.25372 13.009 8.26436 13.0348 8.27665 13.0599C8.27967 13.0659 8.28324 13.0716 8.28633 13.0776C8.30014 13.1044 8.31442 13.1309 8.33042 13.1566C8.33227 13.1596 8.3344 13.1623 8.33625 13.1653C8.35404 13.1933 8.37278 13.2208 8.39311 13.2473L8.39558 13.2503C8.41707 13.2781 8.43994 13.3051 8.46417 13.3311L8.46644 13.3333C8.49061 13.359 8.51594 13.3838 8.5428 13.4074C8.54719 13.4113 8.55207 13.4146 8.55654 13.4184C8.57988 13.4383 8.60371 13.4579 8.62904 13.476C8.65941 13.4979 8.69085 13.5182 8.72325 13.537C9.75685 14.1337 10.5111 15.1166 10.82 16.2694C11.1289 17.4222 10.9672 18.6505 10.3705 19.6841C10.2213 19.9425 10.1809 20.2495 10.2581 20.5377C10.3353 20.8259 10.5238 21.0716 10.7822 21.2208C11.0406 21.37 11.3477 21.4104 11.6359 21.3332C11.924 21.256 12.1698 21.0675 12.3189 20.8091C13.1163 19.4274 13.3988 17.8081 13.1164 16.238C12.8341 14.6679 12.005 13.2485 10.7762 12.2312L11.6662 10.6895L11.6666 10.6889L15.885 3.38237C16.1087 2.99477 16.4773 2.71193 16.9096 2.59609C17.342 2.48025 17.8026 2.54089 18.1902 2.76466C18.5778 2.98844 18.8606 3.35703 18.9765 3.78934C19.0923 4.22165 19.0317 4.68227 18.8079 5.06987L15.1518 11.4027C15.0026 11.6611 14.9622 11.9682 15.0394 12.2564C15.1166 12.5446 15.3052 12.7903 15.5636 12.9395C15.8219 13.0887 16.129 13.1291 16.4172 13.0519C16.7054 12.9747 16.9512 12.7861 17.1003 12.5277L20.7566 6.19487L20.7588 6.1909L21.8814 4.24631C22.1054 3.8591 22.4739 3.57667 22.9061 3.46106C23.3382 3.34546 23.7985 3.40614 24.1859 3.62979C24.5733 3.85343 24.856 4.22174 24.972 4.65375C25.088 5.08577 25.0277 5.54616 24.8044 5.93374L22.5548 9.83013L22.5544 9.83086L19.4606 15.1895C19.3801 15.3272 19.3301 15.4805 19.3137 15.6392C19.2973 15.7978 19.315 15.9582 19.3656 16.1094C19.4163 16.2607 19.4986 16.3993 19.6072 16.5162C19.7158 16.633 19.8481 16.7252 19.9952 16.7868C20.0074 16.7919 20.0196 16.7964 20.0318 16.8011C20.0629 16.813 20.0941 16.8236 20.1257 16.8326C20.1383 16.8362 20.1507 16.84 20.1633 16.8431C20.2023 16.853 20.2418 16.8607 20.2816 16.8663C20.2851 16.8668 20.2886 16.8677 20.2921 16.8681C20.3355 16.8735 20.3792 16.8763 20.4229 16.8765C20.4265 16.8766 20.4301 16.8772 20.4337 16.8772C20.4411 16.8772 20.4484 16.8759 20.4558 16.8758C20.49 16.8751 20.5239 16.8729 20.5577 16.8692C20.5697 16.8679 20.5818 16.8666 20.5938 16.8649C20.6342 16.8593 20.6743 16.8514 20.7139 16.8414C20.7167 16.8407 20.7195 16.8403 20.7222 16.8396C20.7647 16.8282 20.8064 16.8143 20.8472 16.798C20.8577 16.7939 20.8678 16.7891 20.8782 16.7847C20.9092 16.7714 20.9396 16.7568 20.9694 16.7407C20.9801 16.7349 20.9907 16.7293 21.0013 16.7232C21.0386 16.7018 21.0747 16.6782 21.1093 16.6526L21.1118 16.6509C21.1474 16.6237 21.1814 16.5944 21.2136 16.5632C21.2221 16.555 21.2302 16.5463 21.2384 16.5378C21.2627 16.5129 21.2859 16.4868 21.3081 16.4594C21.3158 16.4498 21.3236 16.4405 21.331 16.4307C21.3595 16.3936 21.3856 16.3548 21.4092 16.3145L24.5029 10.9559C24.7269 10.5687 25.0954 10.2863 25.5276 10.1707C25.9597 10.0551 26.4201 10.1158 26.8074 10.3394C27.1948 10.5631 27.4776 10.9315 27.5935 11.3635C27.7094 11.7955 27.6491 12.2559 27.4257 12.6435L21.5194 22.8733C20.1764 25.1982 17.965 26.8945 15.3715 27.5891C12.778 28.2837 10.0148 27.9198 7.68959 26.5773C5.36439 25.2349 3.6676 23.0238 2.97238 20.4305C2.27717 17.8372 2.64047 15.0739 3.98238 12.7484ZM20.9552 29.8259C22.727 28.5992 24.203 26.9928 25.2758 25.1237C25.3497 24.9958 25.448 24.8836 25.5652 24.7937C25.6824 24.7038 25.8162 24.6378 25.9589 24.5996C26.1016 24.5613 26.2504 24.5516 26.3969 24.5709C26.5434 24.5902 26.6846 24.6381 26.8125 24.712C26.9405 24.7858 27.0526 24.8842 27.1425 25.0014C27.2324 25.1186 27.2984 25.2524 27.3366 25.3951C27.3749 25.5378 27.3846 25.6866 27.3653 25.8331C27.346 25.9795 27.2981 26.1208 27.2242 26.2487C25.986 28.4057 24.2823 30.2594 22.2373 31.6749C22.1159 31.7592 21.979 31.8187 21.8346 31.85C21.6902 31.8814 21.5411 31.884 21.3956 31.8577C21.2502 31.8314 21.1114 31.7767 20.9872 31.6967C20.8629 31.6168 20.7556 31.5131 20.6714 31.3917C20.5872 31.2703 20.5277 31.1334 20.4964 30.989C20.4651 30.8446 20.4625 30.6954 20.4889 30.55C20.5152 30.4046 20.57 30.2658 20.65 30.1416C20.73 30.0173 20.8337 29.9101 20.9552 29.8259Z" fill="#1E1E1E" fill-opacity="0.6"/>
</svg>
